<?xml version="1.0" standalone="no"?>
<!DOCTYPE svg PUBLIC " -//W3C//DTD SVG 1.0//EN" "http://www.w3.org/TR/2001/REC-SVG-20010904/DTD/svg10.dtd">
<svg width="400" height="69.5">
<polygon points="0.0,0 188.9502996895736,0 188.9502996895736,1.5 0.0,1.5" fill="black" stroke="black" stroke-width="0" />
<polygon points="190.30831979132662,0 289.6314655973616,0 289.6314655973616,1.5 190.30831979132662,1.5" fill="black" stroke="black" stroke-width="0" />
<polygon points="290.9894856991147,0 299.943251734998,0 299.943251734998,1.5 290.9894856991147,1.5" fill="black" stroke="black" stroke-width="0" />
<polygon points="301.3012718367511,0 324.9939016409806,0 324.9939016409806,1.5 301.3012718367511,1.5" fill="black" stroke="black" stroke-width="0" />
<polygon points="326.3519217427336,0 344.6263908459939,0 344.6263908459939,1.5 326.3519217427336,1.5" fill="black" stroke="black" stroke-width="0" />
<polygon points="345.98441094774694,0 365.9045967113167,0 365.9045967113167,1.5 345.98441094774694,1.5" fill="black" stroke="black" stroke-width="0" />
<polygon points="367.2626168130697,0 378.44387532085346,0 378.44387532085346,1.5 367.2626168130697,1.5" fill="black" stroke="black" stroke-width="0" />
<polygon points="379.80189542260655,0 380.59334953790824,0 380.59334953790824,1.5 379.80189542260655,1.5" fill="black" stroke="black" stroke-width="0" />
<polygon points="381.95136963966127,0 383.6047591135456,0 383.6047591135456,1.5 381.95136963966127,1.5" fill="black" stroke="black" stroke-width="0" />
<polygon points="384.96277921529867,0 386.34232393566447,0 386.34232393566447,1.5 384.96277921529867,1.5" fill="black" stroke="black" stroke-width="0" />
<polygon points="387.70034403741755,0 388.3812553164365,0 388.3812553164365,1.5 387.70034403741755,1.5" fill="black" stroke="black" stroke-width="0" />
<polygon points="389.73927541818955,0 390.24160705382803,0 390.24160705382803,1.5 389.73927541818955,1.5" fill="black" stroke="black" stroke-width="0" />
<polygon points="391.59962715558106,0 392.08865019422234,0 392.08865019422234,1.5 391.59962715558106,1.5" fill="black" stroke="black" stroke-width="0" />
<polygon points="393.4466702959754,0 393.71521877109706,0 393.71521877109706,1.5 393.4466702959754,1.5" fill="black" stroke="black" stroke-width="0" />
<polygon points="395.07323887285014,0 395.3549601429588,0 395.3549601429588,1.5 395.07323887285014,1.5" fill="black" stroke="black" stroke-width="0" />
<polygon points="0.0,33.5 341.6212960638297,33.5 341.6212960638297,35.0 0.0,35.0" fill="black" stroke="black" stroke-width="0" />
<polygon points="342.9793161655827,33.5 362.9606807347364,33.5 362.9606807347364,35.0 342.9793161655827,35.0" fill="black" stroke="black" stroke-width="0" />
<polygon points="364.3187008364895,33.5 375.1551580404381,33.5 375.1551580404381,35.0 364.3187008364895,35.0" fill="black" stroke="black" stroke-width="0" />
<polygon points="376.5131781421912,33.5 381.573907952379,33.5 381.573907952379,35.0 376.5131781421912,35.0" fill="black" stroke="black" stroke-width="0" />
<polygon points="382.9319280541321,33.5 383.5885986743347,33.5 383.5885986743347,35.0 382.9319280541321,35.0" fill="black" stroke="black" stroke-width="0" />
<polygon points="384.9466187760878,33.5 385.3949012116765,33.5 385.3949012116765,35.0 384.9466187760878,35.0" fill="black" stroke="black" stroke-width="0" />
<polygon points="386.7529213134295,33.5 387.0697474031685,33.5 387.0697474031685,35.0 386.7529213134295,35.0" fill="black" stroke="black" stroke-width="0" />
<polygon points="388.4277675049216,33.5 388.73841460319755,33.5 388.73841460319755,35.0 388.4277675049216,35.0" fill="black" stroke="black" stroke-width="0" />
<polygon points="390.09643470495064,33.5 390.2875760342724,33.5 390.2875760342724,35.0 390.09643470495064,35.0" fill="black" stroke="black" stroke-width="0" />
<polygon points="391.6455961360254,33.5 391.7918549009842,33.5 391.7918549009842,35.0 391.6455961360254,35.0" fill="black" stroke="black" stroke-width="0" />
<polygon points="0.0,67.0 9.38025224883885,67.0 9.38025224883885,68.5 0.0,68.5" fill="black" stroke="black" stroke-width="0" />
<polygon points="10.738272350591902,67.0 11.400375051201602,67.0 11.400375051201602,68.5 10.738272350591902,68.5" fill="black" stroke="black" stroke-width="0" />
<polygon points="12.758395152954654,67.0 48.28046645953465,67.0 48.28046645953465,68.5 12.758395152954654,68.5" fill="black" stroke="black" stroke-width="0" />
<polygon points="49.638486561287706,67.0 50.32211388051019,67.0 50.32211388051019,68.5 49.638486561287706,68.5" fill="black" stroke="black" stroke-width="0" />
<polygon points="51.68013398226324,67.0 52.62599498313424,67.0 52.62599498313424,68.5 51.68013398226324,68.5" fill="black" stroke="black" stroke-width="0" />
<polygon points="53.98401508488729,67.0 135.31638218691822,67.0 135.31638218691822,68.5 53.98401508488729,68.5" fill="black" stroke="black" stroke-width="0" />
<polygon points="136.67440228867127,67.0 163.91322998460853,67.0 163.91322998460853,68.5 136.67440228867127,68.5" fill="black" stroke="black" stroke-width="0" />
<polygon points="165.2712500863616,67.0 274.99771258489113,67.0 274.99771258489113,68.5 165.2712500863616,68.5" fill="black" stroke="black" stroke-width="0" />
<polygon points="276.35573268664416,67.0 305.0279505999818,67.0 305.0279505999818,68.5 276.35573268664416,68.5" fill="black" stroke="black" stroke-width="0" />
<polygon points="306.38597070173483,67.0 331.2331212954697,67.0 331.2331212954697,68.5 306.38597070173483,68.5" fill="black" stroke="black" stroke-width="0" />
<polygon points="332.59114139722277,67.0 348.2938599327882,67.0 348.2938599327882,68.5 332.59114139722277,68.5" fill="black" stroke="black" stroke-width="0" />
<polygon points="349.65188003454125,67.0 356.49385691119346,67.0 356.49385691119346,68.5 349.65188003454125,68.5" fill="black" stroke="black" stroke-width="0" />
<polygon points="357.85187701294655,67.0 373.4638798057149,67.0 373.4638798057149,68.5 357.85187701294655,68.5" fill="black" stroke="black" stroke-width="0" />
<polygon points="374.8218999074679,67.0 385.73977041651665,67.0 385.73977041651665,68.5 374.8218999074679,68.5" fill="black" stroke="black" stroke-width="0" />
<polygon points="387.09779051826973,67.0 387.53711002118683,67.0 387.53711002118683,68.5 387.09779051826973,68.5" fill="black" stroke="black" stroke-width="0" />
<polygon points="388.89513012293986,67.0 390.1736381477353,67.0 390.1736381477353,68.5 388.89513012293986,68.5" fill="black" stroke="black" stroke-width="0" />
<polygon points="391.5316582494883,67.0 392.15913143750333,67.0 392.15913143750333,68.5 391.5316582494883,68.5" fill="black" stroke="black" stroke-width="0" />
<polygon points="393.51715153925636,67.0 394.1757912886066,67.0 394.1757912886066,68.5 393.51715153925636,68.5" fill="black" stroke="black" stroke-width="0" />
<polygon points="395.5338113903597,67.0 395.8872361218409,67.0 395.8872361218409,68.5 395.5338113903597,68.5" fill="black" stroke="black" stroke-width="0" />
<polygon points="397.24525622359397,67.0 397.9735624041641,67.0 397.9735624041641,68.5 397.24525622359397,68.5" fill="black" stroke="black" stroke-width="0" />
<polygon points="399.33158250591714,67.0 400.0,67.0 400.0,68.5 399.33158250591714,68.5" fill="black" stroke="black" stroke-width="0" />
<polygon points="395.07323887285014,2.5 395.1483373844771,2.5 391.79178699997914,32.5 391.71560207227077,32.5" fill="lightseagreen" fill-opacity="0.8" stroke="lightseagreen" stroke-width="0" />
<polygon points="395.14840528548217,2.5 395.2919480102375,2.5 391.79178699997914,32.5 391.6455961360254,32.5" fill="lightseagreen" fill-opacity="0.8" stroke="lightseagreen" stroke-width="0" />
<polygon points="393.4853738688754,2.5 393.67121891980025,2.5 390.2875081332673,32.5 390.0965705069608,32.5" fill="lightseagreen" fill-opacity="0.8" stroke="lightseagreen" stroke-width="0" />
<polygon points="391.8469905171154,2.5 392.08858229321726,2.5 388.6733654403236,32.5 388.4277675049216,32.5" fill="lightseagreen" fill-opacity="0.8" stroke="lightseagreen" stroke-width="0" />
<polygon points="388.1355894800294,2.5 388.38118741543144,2.5 385.19540805872896,32.5 384.9466187760878,32.5" fill="lightseagreen" fill-opacity="0.8" stroke="lightseagreen" stroke-width="0" />
<polygon points="391.59962715558106,2.5 391.8469226161103,2.5 388.7383467021925,32.5 388.48772409241394,32.5" fill="lightseagreen" fill-opacity="0.8" stroke="lightseagreen" stroke-width="0" />
<polygon points="389.79162709311214,2.5 390.10383591450517,2.5 387.0696795021634,32.5 386.7529213134295,32.5" fill="lightseagreen" fill-opacity="0.8" stroke="lightseagreen" stroke-width="0" />
<polygon points="387.70034403741755,2.5 388.1355215790243,2.5 385.3948333106714,32.5 384.95361257961184,32.5" fill="lightseagreen" fill-opacity="0.8" stroke="lightseagreen" stroke-width="0" />
<polygon points="385.6247461138982,2.5 386.27489823761243,2.5 383.58853077332964,32.5 382.9319280541321,32.5" fill="lightseagreen" fill-opacity="0.8" stroke="lightseagreen" stroke-width="0" />
<polygon points="384.97377917812287,2.5 385.62467821289306,2.5 383.58853077332964,32.5 382.9319280541321,32.5" fill="lightseagreen" fill-opacity="0.8" stroke="lightseagreen" stroke-width="0" />
<polygon points="379.80189542260655,2.5 380.59328163690316,2.5 378.47381966409716,32.5 377.67143348697635,32.5" fill="lightseagreen" fill-opacity="0.8" stroke="lightseagreen" stroke-width="0" />
<polygon points="291.56229857803413,2.5 292.36291932902265,2.5 272.7008252857911,32.5 271.8932786322836,32.5" fill="lightseagreen" fill-opacity="0.8" stroke="lightseagreen" stroke-width="0" />
<polygon points="381.95136963966127,2.5 383.6046912125405,2.5 380.76622549686135,32.5 379.09850891090355,32.5" fill="lightseagreen" fill-opacity="0.8" stroke="lightseagreen" stroke-width="0" />
<polygon points="373.6882247265245,2.5 378.4438074198484,2.5 369.12398706553756,32.5 364.3187008364895,32.5" fill="lightseagreen" fill-opacity="0.8" stroke="lightseagreen" stroke-width="0" />
<polygon points="367.2626168130697,2.5 373.6882247265245,2.5 375.155090139433,32.5 368.6585256756617,32.5" fill="lightseagreen" fill-opacity="0.8" stroke="lightseagreen" stroke-width="0" />
<polygon points="290.9894856991147,2.5 299.9431838339929,2.5 281.1687596302723,32.5 272.1193889792255,32.5" fill="lightseagreen" fill-opacity="0.8" stroke="lightseagreen" stroke-width="0" />
<polygon points="345.98441094774694,2.5 355.85647017643566,2.5 362.9606128337313,32.5 352.9894181376146,32.5" fill="lightseagreen" fill-opacity="0.8" stroke="lightseagreen" stroke-width="0" />
<polygon points="355.85653807744075,2.5 365.9045288103116,2.5 353.13771393272606,32.5 342.9793161655827,32.5" fill="lightseagreen" fill-opacity="0.8" stroke="lightseagreen" stroke-width="0" />
<polygon points="326.5021866669926,2.5 344.62632294498883,2.5 323.06972295880666,32.5 304.76415519521623,32.5" fill="lightseagreen" fill-opacity="0.8" stroke="lightseagreen" stroke-width="0" />
<polygon points="0.0,2.5 18.70102321722092,2.5 341.6212281628246,32.5 322.73368088462786,32.5" fill="lightseagreen" fill-opacity="0.8" stroke="lightseagreen" stroke-width="0" />
<polygon points="301.3012718367511,2.5 324.9938337399755,2.5 305.40174563298933,32.5 281.4565919908388,32.5" fill="lightseagreen" fill-opacity="0.8" stroke="lightseagreen" stroke-width="0" />
<polygon points="190.30831979132662,2.5 289.630990290326,2.5 272.50907284742357,32.5 172.16089346858533,32.5" fill="lightseagreen" fill-opacity="0.8" stroke="lightseagreen" stroke-width="0" />
<polygon points="18.701091118226007,2.5 188.94996018454816,2.5 172.13767132484534,32.5 0.0,32.5" fill="lightseagreen" fill-opacity="0.8" stroke="lightseagreen" stroke-width="0" />
<polygon points="361.65426539684995,2.5 361.3200566498086,2.5 383.5804505537242,32.5 383.24379737049964,32.5" fill="peru" fill-opacity="0.8" stroke="peru" stroke-width="0" />
<polygon points="161.45568890747114,2.5 160.71346302085803,2.5 353.4728732938387,32.5 352.7221597815896,32.5" fill="peru" fill-opacity="0.8" stroke="peru" stroke-width="0" />
<polygon points="161.45833704666956,2.5 160.71387042688855,2.5 379.7514449758264,32.5 379.00500922689787,32.5" fill="peru" fill-opacity="0.8" stroke="peru" stroke-width="0" />
<polygon points="161.45636791752202,2.5 160.7118333967359,2.5 172.47996029149223,32.5 171.72741345210576,32.5" fill="peru" fill-opacity="0.8" stroke="peru" stroke-width="0" />
<polygon points="388.4896932215615,36.0 388.6732296383134,36.0 399.9999320989949,66.0 399.81843271239563,66.0" fill="lightseagreen" fill-opacity="0.8" stroke="lightseagreen" stroke-width="0" />
<polygon points="388.4898290235717,36.0 388.7383467021925,36.0 393.7545334530428,66.0 393.51715153925636,66.0" fill="lightseagreen" fill-opacity="0.8" stroke="lightseagreen" stroke-width="0" />
<polygon points="386.7529213134295,36.0 387.0696795021634,36.0 399.661513489638,66.0 399.353175025535,66.0" fill="lightseagreen" fill-opacity="0.8" stroke="lightseagreen" stroke-width="0" />
<polygon points="384.9466187760878,36.0 385.26358066783695,36.0 397.9725438890878,66.0 397.67092762448846,66.0" fill="lightseagreen" fill-opacity="0.8" stroke="lightseagreen" stroke-width="0" />
<polygon points="383.06406341003265,36.0 383.4235992319717,36.0 395.8868966168154,66.0 395.537138539609,66.0" fill="lightseagreen" fill-opacity="0.8" stroke="lightseagreen" stroke-width="0" />
<polygon points="24.047955763853203,36.0 24.41726933052495,36.0 11.255678009359814,66.0 10.901031059787005,66.0" fill="lightseagreen" fill-opacity="0.8" stroke="lightseagreen" stroke-width="0" />
<polygon points="384.9555138077543,36.0 385.3948333106714,36.0 397.6708597234834,66.0 397.24525622359397,66.0" fill="lightseagreen" fill-opacity="0.8" stroke="lightseagreen" stroke-width="0" />
<polygon points="377.67564334929176,36.0 378.1249442999568,36.0 387.53704212018175,66.0 387.09779051826973,66.0" fill="lightseagreen" fill-opacity="0.8" stroke="lightseagreen" stroke-width="0" />
<polygon points="382.9319280541321,36.0 383.4345312937908,36.0 394.1757233876015,66.0 393.68880528011795,66.0" fill="lightseagreen" fill-opacity="0.8" stroke="lightseagreen" stroke-width="0" />
<polygon points="382.9319280541321,36.0 383.56429011451337,36.0 392.15906353649825,66.0 391.53926316205815,66.0" fill="lightseagreen" fill-opacity="0.8" stroke="lightseagreen" stroke-width="0" />
<polygon points="14.5877161310211,36.0 15.258985467317634,36.0 11.400307150196515,66.0 10.738272350591902,66.0" fill="lightseagreen" fill-opacity="0.8" stroke="lightseagreen" stroke-width="0" />
<polygon points="60.01036508842663,36.0 60.70702940062595,36.0 50.32170647447966,66.0 49.638486561287706,66.0" fill="lightseagreen" fill-opacity="0.8" stroke="lightseagreen" stroke-width="0" />
<polygon points="379.0079968711217,36.0 379.7508338667806,36.0 170.10369671744473,66.0 169.36432267304528,66.0" fill="lightseagreen" fill-opacity="0.8" stroke="lightseagreen" stroke-width="0" />
<polygon points="352.72249928661506,36.0 353.4727374918285,36.0 170.10457943051088,66.0 169.36432267304528,66.0" fill="lightseagreen" fill-opacity="0.8" stroke="lightseagreen" stroke-width="0" />
<polygon points="60.15017325790211,36.0 61.03947272153509,36.0 52.55687175995501,66.0 51.68013398226324,66.0" fill="lightseagreen" fill-opacity="0.8" stroke="lightseagreen" stroke-width="0" />
<polygon points="379.46435952631583,36.0 380.76235513957135,36.0 390.1735702467302,66.0 388.89513012293986,66.0" fill="lightseagreen" fill-opacity="0.8" stroke="lightseagreen" stroke-width="0" />
<polygon points="373.2684607130726,36.0 375.155090139433,36.0 376.67709116847277,66.0 374.8218999074679,66.0" fill="lightseagreen" fill-opacity="0.8" stroke="lightseagreen" stroke-width="0" />
<polygon points="257.2809823374208,36.0 259.47948108014884,36.0 283.6654116863401,66.0 281.50928317078683,66.0" fill="lightseagreen" fill-opacity="0.8" stroke="lightseagreen" stroke-width="0" />
<polygon points="348.5533775742332,36.0 352.4699754486941,36.0 169.2504526875133,66.0 165.4003977980383,66.0" fill="lightseagreen" fill-opacity="0.8" stroke="lightseagreen" stroke-width="0" />
<polygon points="306.950839163059,36.0 310.9983501753289,36.0 336.53693670387133,66.0 332.59114139722277,66.0" fill="lightseagreen" fill-opacity="0.8" stroke="lightseagreen" stroke-width="0" />
<polygon points="252.00181499386602,36.0 257.25497625247226,36.0 281.49882641600334,66.0 276.35573268664416,66.0" fill="lightseagreen" fill-opacity="0.8" stroke="lightseagreen" stroke-width="0" />
<polygon points="342.9793161655827,36.0 348.8877221232848,36.0 373.4638119047098,66.0 367.65087476016095,66.0" fill="lightseagreen" fill-opacity="0.8" stroke="lightseagreen" stroke-width="0" />
<polygon points="322.7369401328721,36.0 329.6872191126391,36.0 356.4937890101884,66.0 349.65188003454125,66.0" fill="lightseagreen" fill-opacity="0.8" stroke="lightseagreen" stroke-width="0" />
<polygon points="364.3187008364895,36.0 373.58046583145034,36.0 385.73970251551157,66.0 376.67709116847277,66.0" fill="lightseagreen" fill-opacity="0.8" stroke="lightseagreen" stroke-width="0" />
<polygon points="14.933264345912164,36.0 24.478516037114012,36.0 9.380184347833762,66.0 0.0,66.0" fill="lightseagreen" fill-opacity="0.8" stroke="lightseagreen" stroke-width="0" />
<polygon points="352.9932884949046,36.0 362.9606128337313,36.0 367.65080685915586,66.0 357.85187701294655,66.0" fill="lightseagreen" fill-opacity="0.8" stroke="lightseagreen" stroke-width="0" />
<polygon points="311.0280908155573,36.0 322.94784065467434,36.0 348.29379203178314,66.0 336.54752926066504,66.0" fill="lightseagreen" fill-opacity="0.8" stroke="lightseagreen" stroke-width="0" />
<polygon points="236.7543726974133,36.0 252.44432584402225,36.0 248.2497412547325,66.0 232.90017584662792,66.0" fill="lightseagreen" fill-opacity="0.8" stroke="lightseagreen" stroke-width="0" />
<polygon points="259.5040612439906,36.0 281.30904310678335,36.0 305.0278826989767,66.0 283.6781770752966,66.0" fill="lightseagreen" fill-opacity="0.8" stroke="lightseagreen" stroke-width="0" />
<polygon points="281.6731961970684,36.0 306.92965404947165,36.0 331.2330533944646,66.0 306.38597070173483,66.0" fill="lightseagreen" fill-opacity="0.8" stroke="lightseagreen" stroke-width="0" />
<polygon points="171.7284319671821,36.0 197.43011670994508,36.0 194.55043508417774,66.0 169.36432267304528,66.0" fill="lightseagreen" fill-opacity="0.8" stroke="lightseagreen" stroke-width="0" />
<polygon points="144.10127842314856,36.0 171.9885607176729,36.0 163.91316208360345,66.0 136.67440228867127,66.0" fill="lightseagreen" fill-opacity="0.8" stroke="lightseagreen" stroke-width="0" />
<polygon points="24.15781959008503,36.0 60.55309782209224,36.0 48.28039855852956,66.0 12.758395152954654,66.0" fill="lightseagreen" fill-opacity="0.8" stroke="lightseagreen" stroke-width="0" />
<polygon points="197.45815982504627,36.0 236.71281728229962,36.0 232.8867314476206,66.0 194.56306467112404,66.0" fill="lightseagreen" fill-opacity="0.8" stroke="lightseagreen" stroke-width="0" />
<polygon points="60.84113388567406,36.0 143.6214220201941,36.0 135.31624638490803,66.0 53.98401508488729,66.0" fill="lightseagreen" fill-opacity="0.8" stroke="lightseagreen" stroke-width="0" />
<polygon points="348.8353704483622,36.0 348.6560438939257,36.0 395.8868966168154,66.0 395.71062560760794,66.0" fill="peru" fill-opacity="0.8" stroke="peru" stroke-width="0" />
<polygon points="348.83550625037236,36.0 348.51548881339426,36.0 392.15906353649825,66.0 391.8427806547999,66.0" fill="peru" fill-opacity="0.8" stroke="peru" stroke-width="0" />
<polygon points="383.5804505537242,36.0 383.24379737049964,36.0 373.41247874486356,66.0 373.0798996219442,66.0" fill="peru" fill-opacity="0.8" stroke="peru" stroke-width="0" />
<polygon points="252.44432584402225,36.0 252.08974679545452,36.0 11.25343727619192,66.0 10.913389042712959,66.0" fill="peru" fill-opacity="0.8" stroke="peru" stroke-width="0" />
<polygon points="338.19501134710674,36.0 337.83927798145254,36.0 11.25493109830385,66.0 10.913389042712959,66.0" fill="peru" fill-opacity="0.8" stroke="peru" stroke-width="0" />
<polygon points="307.12717807327164,36.0 306.76913607344443,36.0 11.25112864201894,66.0 10.908024863311034,66.0" fill="peru" fill-opacity="0.8" stroke="peru" stroke-width="0" />
<polygon points="144.30633945851324,36.0 143.55263830204032,36.0 170.10627695563807,66.0 169.36242144490282,66.0" fill="peru" fill-opacity="0.8" stroke="peru" stroke-width="0" />
<polygon points="341.6212281628246,36.0 329.17239369206453,36.0 274.99764468388605,66.0 262.7406984535037,66.0" fill="peru" fill-opacity="0.8" stroke="peru" stroke-width="0" />
<polygon points="15.103695868682173,36.0 0.0,36.0 262.7406305524986,66.0 247.9166189237725,66.0" fill="peru" fill-opacity="0.8" stroke="peru" stroke-width="0" />
</svg>
