<?xml version="1.0" standalone="no"?>
<!DOCTYPE svg PUBLIC " -//W3C//DTD SVG 1.0//EN" "http://www.w3.org/TR/2001/REC-SVG-20010904/DTD/svg10.dtd">
<svg width="400" height="69.5">
<polygon points="0.0,0 42.958445121451035,0 42.958445121451035,1.5 0.0,1.5" fill="black" stroke="black" stroke-width="0" />
<polygon points="44.297726202063366,0 80.75275632416897,0 80.75275632416897,1.5 44.297726202063366,1.5" fill="black" stroke="black" stroke-width="0" />
<polygon points="82.09203740478131,0 165.88449303356205,0 165.88449303356205,1.5 82.09203740478131,1.5" fill="black" stroke="black" stroke-width="0" />
<polygon points="167.2237741141744,0 195.907759694135,0 195.907759694135,1.5 167.2237741141744,1.5" fill="black" stroke="black" stroke-width="0" />
<polygon points="197.24704077474735,0 297.96794229841396,0 297.96794229841396,1.5 197.24704077474735,1.5" fill="black" stroke="black" stroke-width="0" />
<polygon points="299.3072233790263,0 300.4695184648357,0 300.4695184648357,1.5 299.3072233790263,1.5" fill="black" stroke="black" stroke-width="0" />
<polygon points="301.80879954544804,0 302.4952480633159,0 302.4952480633159,1.5 301.80879954544804,1.5" fill="black" stroke="black" stroke-width="0" />
<polygon points="303.8345291439282,0 312.31954443014763,0 312.31954443014763,1.5 303.8345291439282,1.5" fill="black" stroke="black" stroke-width="0" />
<polygon points="313.65882551076,0 354.98502181521474,0 354.98502181521474,1.5 313.65882551076,1.5" fill="black" stroke="black" stroke-width="0" />
<polygon points="356.3243028958271,0 367.7403348269666,0 367.7403348269666,1.5 356.3243028958271,1.5" fill="black" stroke="black" stroke-width="0" />
<polygon points="369.07961590757895,0 369.7373368462676,0 369.7373368462676,1.5 369.07961590757895,1.5" fill="black" stroke="black" stroke-width="0" />
<polygon points="371.07661792688,0 371.51791104294176,0 371.51791104294176,1.5 371.07661792688,1.5" fill="black" stroke="black" stroke-width="0" />
<polygon points="372.85719212355406,0 373.17105264479557,0 373.17105264479557,1.5 372.85719212355406,1.5" fill="black" stroke="black" stroke-width="0" />
<polygon points="374.5103337254079,0 389.6734062638846,0 389.6734062638846,1.5 374.5103337254079,1.5" fill="black" stroke="black" stroke-width="0" />
<polygon points="391.01268734449695,0 396.97972027105715,0 396.97972027105715,1.5 391.01268734449695,1.5" fill="black" stroke="black" stroke-width="0" />
<polygon points="398.31900135166944,0 400.00000000000006,0 400.00000000000006,1.5 398.31900135166944,1.5" fill="black" stroke="black" stroke-width="0" />
<polygon points="0.0,33.5 336.90733882505543,33.5 336.90733882505543,35.0 0.0,35.0" fill="black" stroke="black" stroke-width="0" />
<polygon points="338.2466199056678,33.5 348.93354721652196,33.5 348.93354721652196,35.0 338.2466199056678,35.0" fill="black" stroke="black" stroke-width="0" />
<polygon points="350.27282829713425,33.5 350.92043766366436,33.5 350.92043766366436,35.0 350.27282829713425,35.0" fill="black" stroke="black" stroke-width="0" />
<polygon points="352.2597187442767,33.5 352.70181542898683,33.5 352.70181542898683,35.0 352.2597187442767,35.0" fill="black" stroke="black" stroke-width="0" />
<polygon points="354.0410965095992,33.5 354.3474570567892,33.5 354.3474570567892,35.0 354.0410965095992,35.0" fill="black" stroke="black" stroke-width="0" />
<polygon points="355.68673813740156,33.5 355.9991924135084,33.5 355.9991924135084,35.0 355.68673813740156,35.0" fill="black" stroke="black" stroke-width="0" />
<polygon points="357.33847349412076,33.5 357.52697730621696,33.5 357.52697730621696,35.0 357.33847349412076,35.0" fill="black" stroke="black" stroke-width="0" />
<polygon points="358.86625838682926,33.5 359.01049895921125,33.5 359.01049895921125,35.0 358.86625838682926,35.0" fill="black" stroke="black" stroke-width="0" />
<polygon points="360.34978003982354,33.5 384.8031106142379,33.5 384.8031106142379,35.0 360.34978003982354,35.0" fill="black" stroke="black" stroke-width="0" />
<polygon points="0.0,67.0 355.1111151289544,67.0 355.1111151289544,68.5 0.0,68.5" fill="black" stroke="black" stroke-width="0" />
<polygon points="356.45039620956675,67.0 368.4252431715917,67.0 368.4252431715917,68.5 356.45039620956675,68.5" fill="black" stroke="black" stroke-width="0" />
<polygon points="369.76452425220407,67.0 369.9638092769992,67.0 369.9638092769992,68.5 369.76452425220407,68.5" fill="black" stroke="black" stroke-width="0" />
<polygon points="371.3030903576115,67.0 371.4903218526811,67.0 371.4903218526811,68.5 371.3030903576115,68.5" fill="black" stroke="black" stroke-width="0" />
<polygon points="372.8296029332935,67.0 372.9001160821877,67.0 372.9001160821877,68.5 372.8296029332935,68.5" fill="black" stroke="black" stroke-width="0" />
<polygon points="374.23939716280006,67.0 374.6866500796705,67.0 374.6866500796705,68.5 374.23939716280006,68.5" fill="black" stroke="black" stroke-width="0" />
<polygon points="376.0259311602829,67.0 376.34468005746857,67.0 376.34468005746857,68.5 376.0259311602829,68.5" fill="black" stroke="black" stroke-width="0" />
<polygon points="377.6839611380809,67.0 377.9855002733808,67.0 377.9855002733808,68.5 377.6839611380809,68.5" fill="black" stroke="black" stroke-width="0" />
<polygon points="379.3247813539931,67.0 379.51844139824965,67.0 379.51844139824965,68.5 379.3247813539931,68.5" fill="black" stroke="black" stroke-width="0" />
<polygon points="380.857722478862,67.0 380.9660703182835,67.0 380.9660703182835,68.5 380.857722478862,68.5" fill="black" stroke="black" stroke-width="0" />
<polygon points="382.3053513988959,67.0 382.45474820343816,67.0 382.45474820343816,68.5 382.3053513988959,68.5" fill="black" stroke="black" stroke-width="0" />
<polygon points="383.7940292840505,67.0 388.0621841598539,67.0 388.0621841598539,68.5 383.7940292840505,68.5" fill="black" stroke="black" stroke-width="0" />
<polygon points="389.4014652404663,67.0 389.4727819580089,67.0 389.4727819580089,68.5 389.4014652404663,68.5" fill="black" stroke="black" stroke-width="0" />
<polygon points="372.9718345840545,2.5 373.17078478857945,2.5 355.88361245625157,32.5 355.68673813740156,32.5" fill="lightseagreen" fill-opacity="0.8" stroke="lightseagreen" stroke-width="0" />
<polygon points="371.07661792688,2.5 371.5142949840241,2.5 352.7017484649328,32.5 352.26681693400394,32.5" fill="lightseagreen" fill-opacity="0.8" stroke="lightseagreen" stroke-width="0" />
<polygon points="299.88331513585166,2.5 300.46945150078164,2.5 268.7121506610859,32.5 268.141482992637,32.5" fill="lightseagreen" fill-opacity="0.8" stroke="lightseagreen" stroke-width="0" />
<polygon points="369.07961590757895,2.5 369.72233689816477,2.5 350.9203706996103,32.5 350.2891675263177,32.5" fill="lightseagreen" fill-opacity="0.8" stroke="lightseagreen" stroke-width="0" />
<polygon points="297.292141065137,2.5 297.9678753343599,2.5 269.5885762002386,32.5 268.9367480983046,32.5" fill="lightseagreen" fill-opacity="0.8" stroke="lightseagreen" stroke-width="0" />
<polygon points="301.80879954544804,2.5 302.49518109926186,2.5 268.93005169290154,32.5 268.25779955448814,32.5" fill="lightseagreen" fill-opacity="0.8" stroke="lightseagreen" stroke-width="0" />
<polygon points="301.80879954544804,2.5 302.49518109926186,2.5 269.7242453737046,32.5 269.0533325163719,32.5" fill="lightseagreen" fill-opacity="0.8" stroke="lightseagreen" stroke-width="0" />
<polygon points="366.2414784055993,2.5 366.9651589375082,2.5 347.0084645912498,32.5 346.29429295501325,32.5" fill="lightseagreen" fill-opacity="0.8" stroke="lightseagreen" stroke-width="0" />
<polygon points="112.67063696543015,2.5 113.59762036537597,2.5 91.02919398381547,32.5 90.1137284011629,32.5" fill="lightseagreen" fill-opacity="0.8" stroke="lightseagreen" stroke-width="0" />
<polygon points="164.8653670952701,2.5 165.88442606950804,2.5 142.35218605828484,32.5 141.34471186539423,32.5" fill="lightseagreen" fill-opacity="0.8" stroke="lightseagreen" stroke-width="0" />
<polygon points="35.56467605971453,2.5 36.71029709607032,2.5 17.764157289187953,32.5 16.65074596282089,32.5" fill="lightseagreen" fill-opacity="0.8" stroke="lightseagreen" stroke-width="0" />
<polygon points="299.3084956960529,2.5 300.46945150078164,2.5 269.50681309026726,32.5 268.3666161422879,32.5" fill="lightseagreen" fill-opacity="0.8" stroke="lightseagreen" stroke-width="0" />
<polygon points="365.0211924489994,2.5 366.2073937020977,2.5 346.2685787582655,32.5 345.10601581623996,32.5" fill="lightseagreen" fill-opacity="0.8" stroke="lightseagreen" stroke-width="0" />
<polygon points="282.8173250739869,2.5 284.1135482678576,2.5 255.2010813355445,32.5 253.92635360301767,32.5" fill="lightseagreen" fill-opacity="0.8" stroke="lightseagreen" stroke-width="0" />
<polygon points="179.8621678875888,2.5 181.26814516601561,2.5 155.45403804964516,32.5 154.07772584715389,32.5" fill="lightseagreen" fill-opacity="0.8" stroke="lightseagreen" stroke-width="0" />
<polygon points="111.16655734784847,2.5 112.63219959841658,2.5 90.0826570800927,32.5 88.64601026491985,32.5" fill="lightseagreen" fill-opacity="0.8" stroke="lightseagreen" stroke-width="0" />
<polygon points="356.3248386082593,2.5 357.83072625529985,2.5 348.69093644876904,32.5 347.20587462253206,32.5" fill="lightseagreen" fill-opacity="0.8" stroke="lightseagreen" stroke-width="0" />
<polygon points="296.36991211302734,2.5 297.9678753343599,2.5 268.79404769916533,32.5 267.23090578592866,32.5" fill="lightseagreen" fill-opacity="0.8" stroke="lightseagreen" stroke-width="0" />
<polygon points="350.00470422479566,2.5 351.67304666691444,2.5 315.13551683024315,32.5 313.50527693486777,32.5" fill="lightseagreen" fill-opacity="0.8" stroke="lightseagreen" stroke-width="0" />
<polygon points="398.31926920788555,2.5 399.999933035946,2.5 381.5300415813294,32.5 379.8868106594721,32.5" fill="lightseagreen" fill-opacity="0.8" stroke="lightseagreen" stroke-width="0" />
<polygon points="103.32988803275347,2.5 105.06599809755123,2.5 82.66076311566334,32.5 80.94936278680287,32.5" fill="lightseagreen" fill-opacity="0.8" stroke="lightseagreen" stroke-width="0" />
<polygon points="374.51107033000227,2.5 376.28849721613693,2.5 362.10678288947884,32.5 360.34978003982354,32.5" fill="lightseagreen" fill-opacity="0.8" stroke="lightseagreen" stroke-width="0" />
<polygon points="44.4167882901298,2.5 46.39959392997636,2.5 26.228346754603866,32.5 24.266902647993074,32.5" fill="lightseagreen" fill-opacity="0.8" stroke="lightseagreen" stroke-width="0" />
<polygon points="265.812138373182,2.5 267.84195277895805,2.5 239.17812337926065,32.5 237.16585355564064,32.5" fill="lightseagreen" fill-opacity="0.8" stroke="lightseagreen" stroke-width="0" />
<polygon points="280.72309124823346,2.5 282.76027169995285,2.5 253.88075108222282,32.5 251.87323570643898,32.5" fill="lightseagreen" fill-opacity="0.8" stroke="lightseagreen" stroke-width="0" />
<polygon points="233.61695958418005,2.5 235.7896083172034,2.5 207.55896938303005,32.5 205.41196788270042,32.5" fill="lightseagreen" fill-opacity="0.8" stroke="lightseagreen" stroke-width="0" />
<polygon points="130.12133551770077,2.5 132.30014494369496,2.5 109.33502350605708,32.5 107.19123628032092,32.5" fill="lightseagreen" fill-opacity="0.8" stroke="lightseagreen" stroke-width="0" />
<polygon points="0.0,2.5 2.2310413881380544,2.5 320.64505133966617,32.5 318.44421073989594,32.5" fill="lightseagreen" fill-opacity="0.8" stroke="lightseagreen" stroke-width="0" />
<polygon points="82.09203740478131,2.5 85.07608958049364,2.5 62.98725975390041,32.5 60.05892167114155,32.5" fill="lightseagreen" fill-opacity="0.8" stroke="lightseagreen" stroke-width="0" />
<polygon points="303.8400201963587,2.5 306.85775529124845,2.5 272.065308702615,32.5 269.1280644006701,32.5" fill="lightseagreen" fill-opacity="0.8" stroke="lightseagreen" stroke-width="0" />
<polygon points="351.7513946101303,2.5 354.9849548511607,2.5 318.3972019739664,32.5 315.19893178941015,32.5" fill="lightseagreen" fill-opacity="0.8" stroke="lightseagreen" stroke-width="0" />
<polygon points="120.32516405356188,2.5 124.19180246139774,2.5 101.3906090280268,32.5 97.58919360881676,32.5" fill="lightseagreen" fill-opacity="0.8" stroke="lightseagreen" stroke-width="0" />
<polygon points="210.68592285004374,2.5 214.61316372677732,2.5 186.70683170627424,32.5 182.82860851709108,32.5" fill="lightseagreen" fill-opacity="0.8" stroke="lightseagreen" stroke-width="0" />
<polygon points="307.33259739837956,2.5 312.3183390771751,2.5 277.4117857404735,32.5 272.47847691598395,32.5" fill="lightseagreen" fill-opacity="0.8" stroke="lightseagreen" stroke-width="0" />
<polygon points="18.6881273067024,2.5 24.03413559618265,2.5 5.297392386254021,32.5 0.0,32.5" fill="lightseagreen" fill-opacity="0.8" stroke="lightseagreen" stroke-width="0" />
<polygon points="124.21383363517381,2.5 129.5664713660031,2.5 106.68451928347125,32.5 101.40728307748043,32.5" fill="lightseagreen" fill-opacity="0.8" stroke="lightseagreen" stroke-width="0" />
<polygon points="75.37259636713311,2.5 80.75268936011494,2.5 60.15273831083844,32.5 54.849185231613596,32.5" fill="lightseagreen" fill-opacity="0.8" stroke="lightseagreen" stroke-width="0" />
<polygon points="197.56150397247512,2.5 203.09635089432172,2.5 175.37222806483595,32.5 169.9154612299891,32.5" fill="lightseagreen" fill-opacity="0.8" stroke="lightseagreen" stroke-width="0" />
<polygon points="391.2414365530655,2.5 396.97905063051684,2.5 380.3949339014564,32.5 374.74490880667713,32.5" fill="lightseagreen" fill-opacity="0.8" stroke="lightseagreen" stroke-width="0" />
<polygon points="113.64108003644185,2.5 119.42784572955162,2.5 96.77008929991425,32.5 91.063144759209,32.5" fill="lightseagreen" fill-opacity="0.8" stroke="lightseagreen" stroke-width="0" />
<polygon points="344.12412189198903,2.5 349.97945877642616,2.5 313.490410914873,32.5 307.71121215986864,32.5" fill="lightseagreen" fill-opacity="0.8" stroke="lightseagreen" stroke-width="0" />
<polygon points="105.09097568970465,2.5 111.08204871166183,2.5 88.57784085791668,32.5 82.68085233187252,32.5" fill="lightseagreen" fill-opacity="0.8" stroke="lightseagreen" stroke-width="0" />
<polygon points="259.6423382910171,2.5 265.7786563461667,2.5 237.14047417916302,32.5 231.06623180209982,32.5" fill="lightseagreen" fill-opacity="0.8" stroke="lightseagreen" stroke-width="0" />
<polygon points="36.76453797983512,2.5 42.957373696586544,2.5 23.8931762624482,32.5 17.794893789988006,32.5" fill="lightseagreen" fill-opacity="0.8" stroke="lightseagreen" stroke-width="0" />
<polygon points="214.65581982919483,2.5 221.12180192233714,2.5 193.10163100998201,32.5 186.74044766139764,32.5" fill="lightseagreen" fill-opacity="0.8" stroke="lightseagreen" stroke-width="0" />
<polygon points="68.75534247593563,2.5 75.32605634958183,2.5 54.82112729297477,32.5 48.32561405200495,32.5" fill="lightseagreen" fill-opacity="0.8" stroke="lightseagreen" stroke-width="0" />
<polygon points="313.65882551076,2.5 320.5465472161871,2.5 284.5112477847454,32.5 277.71426237252973,32.5" fill="lightseagreen" fill-opacity="0.8" stroke="lightseagreen" stroke-width="0" />
<polygon points="358.0924887425055,2.5 365.0191165633244,2.5 345.11036847975197,32.5 338.2466199056678,32.5" fill="lightseagreen" fill-opacity="0.8" stroke="lightseagreen" stroke-width="0" />
<polygon points="203.11670796674701,2.5 210.12469711321313,2.5 182.3076951407869,32.5 175.3871610488848,32.5" fill="lightseagreen" fill-opacity="0.8" stroke="lightseagreen" stroke-width="0" />
<polygon points="188.77414598230743,2.5 195.90307221035286,2.5 169.82947938461373,32.5 162.84981603300258,32.5" fill="lightseagreen" fill-opacity="0.8" stroke="lightseagreen" stroke-width="0" />
<polygon points="181.29211829735857,2.5 188.75311926934182,2.5 162.83642322219646,32.5 155.47466297828657,32.5" fill="lightseagreen" fill-opacity="0.8" stroke="lightseagreen" stroke-width="0" />
<polygon points="24.057840871309487,2.5 35.497712005683915,2.5 16.59978631770359,32.5 5.316410177598716,32.5" fill="lightseagreen" fill-opacity="0.8" stroke="lightseagreen" stroke-width="0" />
<polygon points="221.76144256643758,2.5 233.5680758247377,2.5 205.37085195352563,32.5 193.71582531355082,32.5" fill="lightseagreen" fill-opacity="0.8" stroke="lightseagreen" stroke-width="0" />
<polygon points="284.4387926782843,2.5 296.33669794222817,2.5 267.20532551728894,32.5 255.46224114626392,32.5" fill="lightseagreen" fill-opacity="0.8" stroke="lightseagreen" stroke-width="0" />
<polygon points="167.2325464052524,2.5 179.83585101435477,2.5 154.05663217013424,32.5 141.67370626284665,32.5" fill="lightseagreen" fill-opacity="0.8" stroke="lightseagreen" stroke-width="0" />
<polygon points="267.8919079632649,2.5 280.7097654014814,2.5 251.87470891562765,32.5 239.21528842924766,32.5" fill="lightseagreen" fill-opacity="0.8" stroke="lightseagreen" stroke-width="0" />
<polygon points="376.3189658607208,2.5 389.67333929983056,2.5 375.3092818540472,32.5 362.11401500731415,32.5" fill="lightseagreen" fill-opacity="0.8" stroke="lightseagreen" stroke-width="0" />
<polygon points="2.360750760795359,2.5 18.68806034264837,2.5 336.9072718610014,32.5 320.75125632935874,32.5" fill="lightseagreen" fill-opacity="0.8" stroke="lightseagreen" stroke-width="0" />
<polygon points="85.1094376794009,2.5 103.29787921492684,2.5 80.92913964248562,32.5 63.01699179389001,32.5" fill="lightseagreen" fill-opacity="0.8" stroke="lightseagreen" stroke-width="0" />
<polygon points="46.3863350472783,2.5 68.73398094269987,2.5 48.31027928363195,32.5 26.222989630281415,32.5" fill="lightseagreen" fill-opacity="0.8" stroke="lightseagreen" stroke-width="0" />
<polygon points="320.6540914869603,2.5 343.67298505998474,2.5 307.27614670083176,32.5 284.5753993485067,32.5" fill="lightseagreen" fill-opacity="0.8" stroke="lightseagreen" stroke-width="0" />
<polygon points="235.80963056935855,2.5 259.5343252718657,2.5 230.98051781294063,32.5 207.5743711154571,32.5" fill="lightseagreen" fill-opacity="0.8" stroke="lightseagreen" stroke-width="0" />
<polygon points="132.67306776059144,2.5 164.8423984247376,2.5 141.32877442053496,32.5 109.66756699837312,32.5" fill="lightseagreen" fill-opacity="0.8" stroke="lightseagreen" stroke-width="0" />
<polygon points="369.7143681757351,2.5 369.3812889709869,2.5 375.9588331781442,32.5 375.6273611106926,32.5" fill="peru" fill-opacity="0.8" stroke="peru" stroke-width="0" />
<polygon points="392.4751822845256,2.5 392.14036201437256,2.5 350.9124019771807,32.5 350.58039419729687,32.5" fill="peru" fill-opacity="0.8" stroke="peru" stroke-width="0" />
<polygon points="165.84424763708967,2.5 165.0973975424862,2.5 380.5305361108684,32.5 379.7918556308567,32.5" fill="peru" fill-opacity="0.8" stroke="peru" stroke-width="0" />
<polygon points="165.84491727762997,2.5 165.09538862086526,2.5 170.09994719884344,32.5 169.35778458802207,32.5" fill="peru" fill-opacity="0.8" stroke="peru" stroke-width="0" />
<polygon points="350.48999272435555,36.0 350.56043890919574,36.0 372.90004911813367,66.0 372.8296029332935,66.0" fill="lightseagreen" fill-opacity="0.8" stroke="lightseagreen" stroke-width="0" />
<polygon points="354.1793772811724,36.0 354.2498234660126,36.0 372.90004911813367,66.0 372.8296029332935,66.0" fill="lightseagreen" fill-opacity="0.8" stroke="lightseagreen" stroke-width="0" />
<polygon points="357.33847349412076,36.0 357.4691203635345,36.0 379.5183744341956,66.0 379.38772756478187,66.0" fill="lightseagreen" fill-opacity="0.8" stroke="lightseagreen" stroke-width="0" />
<polygon points="358.86625838682926,36.0 358.9996507824583,36.0 382.4546812393841,66.0 382.32128884375516,66.0" fill="lightseagreen" fill-opacity="0.8" stroke="lightseagreen" stroke-width="0" />
<polygon points="350.29586393172076,36.0 350.49508199246185,36.0 369.96374231294516,66.0 369.76452425220407,66.0" fill="lightseagreen" fill-opacity="0.8" stroke="lightseagreen" stroke-width="0" />
<polygon points="352.2597187442767,36.0 352.5004545185168,36.0 374.6865831156165,66.0 374.44584734137646,66.0" fill="lightseagreen" fill-opacity="0.8" stroke="lightseagreen" stroke-width="0" />
<polygon points="355.7520280900814,36.0 355.99912544945437,36.0 377.93105849745393,66.0 377.6839611380809,66.0" fill="lightseagreen" fill-opacity="0.8" stroke="lightseagreen" stroke-width="0" />
<polygon points="354.0410965095992,36.0 354.34451063841186,36.0 376.3446130934145,66.0 376.04119896460185,66.0" fill="lightseagreen" fill-opacity="0.8" stroke="lightseagreen" stroke-width="0" />
<polygon points="350.58039419729687,36.0 350.9124019771807,36.0 146.50911364034346,66.0 146.1771728245137,66.0" fill="lightseagreen" fill-opacity="0.8" stroke="lightseagreen" stroke-width="0" />
<polygon points="141.57339410990878,36.0 142.31388261937934,36.0 162.05488574760514,66.0 161.3126561727298,66.0" fill="lightseagreen" fill-opacity="0.8" stroke="lightseagreen" stroke-width="0" />
<polygon points="346.61163560706433,36.0 348.9334802524679,36.0 358.7727096033485,66.0 356.45039620956675,66.0" fill="lightseagreen" fill-opacity="0.8" stroke="lightseagreen" stroke-width="0" />
<polygon points="380.5248441662758,36.0 384.7927981499172,36.0 388.0621171957999,66.0 383.7940292840505,66.0" fill="lightseagreen" fill-opacity="0.8" stroke="lightseagreen" stroke-width="0" />
<polygon points="170.09258115290004,36.0 178.4118604053937,36.0 197.42268748846965,66.0 189.10052878165266,66.0" fill="lightseagreen" fill-opacity="0.8" stroke="lightseagreen" stroke-width="0" />
<polygon points="338.2466199056678,36.0 347.8976133006683,36.0 368.4251762075377,66.0 358.77277656740256,66.0" fill="lightseagreen" fill-opacity="0.8" stroke="lightseagreen" stroke-width="0" />
<polygon points="268.9367480983046,36.0 336.8831648015504,36.0 355.1110481649004,66.0 287.1580020203055,66.0" fill="lightseagreen" fill-opacity="0.8" stroke="lightseagreen" stroke-width="0" />
<polygon points="177.07780252099576,36.0 268.9378864872231,36.0 287.9560126521884,66.0 196.08601800596452,66.0" fill="lightseagreen" fill-opacity="0.8" stroke="lightseagreen" stroke-width="0" />
<polygon points="0.0,36.0 142.31321297883903,36.0 142.3424093063964,66.0 0.02410705945102199,66.0" fill="lightseagreen" fill-opacity="0.8" stroke="lightseagreen" stroke-width="0" />
<polygon points="380.52993343438214,36.0 379.79178866680263,36.0 162.05428307111885,66.0 161.31366063354022,66.0" fill="peru" fill-opacity="0.8" stroke="peru" stroke-width="0" />
<polygon points="170.09994719884344,36.0 169.35838726450837,36.0 142.34247627045042,66.0 141.5992422347646,66.0" fill="peru" fill-opacity="0.8" stroke="peru" stroke-width="0" />
<polygon points="170.09813916938458,36.0 168.60309969909704,36.0 162.8039456559916,66.0 161.31285706489186,66.0" fill="peru" fill-opacity="0.8" stroke="peru" stroke-width="0" />
<polygon points="380.5305361108684,36.0 360.34978003982354,36.0 161.79031077013016,66.0 141.60125115638553,66.0" fill="peru" fill-opacity="0.8" stroke="peru" stroke-width="0" />
<polygon points="169.9420459594392,36.0 142.3081237107327,36.0 189.10052878165266,66.0 161.46961991537754,66.0" fill="peru" fill-opacity="0.8" stroke="peru" stroke-width="0" />
</svg>
