<?xml version="1.0" standalone="no"?>
<!DOCTYPE svg PUBLIC " -//W3C//DTD SVG 1.0//EN" "http://www.w3.org/TR/2001/REC-SVG-20010904/DTD/svg10.dtd">
<svg width="400" height="69.5">
<polygon points="0.0,0 188.9502996895736,0 188.9502996895736,1.5 0.0,1.5" fill="black" stroke="black" stroke-width="0" />
<polygon points="190.30831979132662,0 289.6314655973616,0 289.6314655973616,1.5 190.30831979132662,1.5" fill="black" stroke="black" stroke-width="0" />
<polygon points="290.9894856991147,0 299.943251734998,0 299.943251734998,1.5 290.9894856991147,1.5" fill="black" stroke="black" stroke-width="0" />
<polygon points="301.3012718367511,0 324.9939016409806,0 324.9939016409806,1.5 301.3012718367511,1.5" fill="black" stroke="black" stroke-width="0" />
<polygon points="326.3519217427336,0 344.6263908459939,0 344.6263908459939,1.5 326.3519217427336,1.5" fill="black" stroke="black" stroke-width="0" />
<polygon points="345.98441094774694,0 357.1656694555307,0 357.1656694555307,1.5 345.98441094774694,1.5" fill="black" stroke="black" stroke-width="0" />
<polygon points="358.5236895572838,0 359.9032342776496,0 359.9032342776496,1.5 358.5236895572838,1.5" fill="black" stroke="black" stroke-width="0" />
<polygon points="361.26125437940266,0 361.94216565842163,0 361.94216565842163,1.5 361.26125437940266,1.5" fill="black" stroke="black" stroke-width="0" />
<polygon points="363.30018576017466,0 363.78920879881593,0 363.78920879881593,1.5 363.30018576017466,1.5" fill="black" stroke="black" stroke-width="0" />
<polygon points="365.147228900569,0 365.64956053620745,0 365.64956053620745,1.5 365.147228900569,1.5" fill="black" stroke="black" stroke-width="0" />
<polygon points="367.00758063796053,0 367.27612911308216,0 367.27612911308216,1.5 367.00758063796053,1.5" fill="black" stroke="black" stroke-width="0" />
<polygon points="368.63414921483525,0 368.9158704849439,0 368.9158704849439,1.5 368.63414921483525,1.5" fill="black" stroke="black" stroke-width="0" />
<polygon points="370.27389058669695,0 390.1940763502667,0 390.1940763502667,1.5 370.27389058669695,1.5" fill="black" stroke="black" stroke-width="0" />
<polygon points="391.5520964520197,0 393.20548592590404,0 393.20548592590404,1.5 391.5520964520197,1.5" fill="black" stroke="black" stroke-width="0" />
<polygon points="394.5635060276571,0 395.3549601429588,0 395.3549601429588,1.5 394.5635060276571,1.5" fill="black" stroke="black" stroke-width="0" />
<polygon points="0.0,33.5 341.6212960638297,33.5 341.6212960638297,35.0 0.0,35.0" fill="black" stroke="black" stroke-width="0" />
<polygon points="342.9793161655827,33.5 353.81577336953137,33.5 353.81577336953137,35.0 342.9793161655827,35.0" fill="black" stroke="black" stroke-width="0" />
<polygon points="355.1737934712844,33.5 355.8304640914871,33.5 355.8304640914871,35.0 355.1737934712844,35.0" fill="black" stroke="black" stroke-width="0" />
<polygon points="357.1884841932402,33.5 357.63676662882887,33.5 357.63676662882887,35.0 357.1884841932402,35.0" fill="black" stroke="black" stroke-width="0" />
<polygon points="358.9947867305819,33.5 359.30543382885793,33.5 359.30543382885793,35.0 358.9947867305819,35.0" fill="black" stroke="black" stroke-width="0" />
<polygon points="360.66345393061096,33.5 360.98028002034994,33.5 360.98028002034994,35.0 360.66345393061096,35.0" fill="black" stroke="black" stroke-width="0" />
<polygon points="362.338300122103,33.5 362.52944145142476,33.5 362.52944145142476,35.0 362.338300122103,35.0" fill="black" stroke="black" stroke-width="0" />
<polygon points="363.8874615531778,33.5 364.0337203181366,33.5 364.0337203181366,35.0 363.8874615531778,35.0" fill="black" stroke="black" stroke-width="0" />
<polygon points="365.39174041988963,33.5 390.1872183487528,33.5 390.1872183487528,35.0 365.39174041988963,35.0" fill="black" stroke="black" stroke-width="0" />
<polygon points="0.0,67.0 9.38025224883885,67.0 9.38025224883885,68.5 0.0,68.5" fill="black" stroke="black" stroke-width="0" />
<polygon points="10.738272350591902,67.0 11.400375051201602,67.0 11.400375051201602,68.5 10.738272350591902,68.5" fill="black" stroke="black" stroke-width="0" />
<polygon points="12.758395152954654,67.0 13.704256153825654,67.0 13.704256153825654,68.5 12.758395152954654,68.5" fill="black" stroke="black" stroke-width="0" />
<polygon points="15.062276255578706,67.0 15.74590357480119,67.0 15.74590357480119,68.5 15.062276255578706,68.5" fill="black" stroke="black" stroke-width="0" />
<polygon points="17.103923676554242,67.0 52.62599498313424,67.0 52.62599498313424,68.5 17.103923676554242,68.5" fill="black" stroke="black" stroke-width="0" />
<polygon points="53.98401508488729,67.0 135.31638218691822,67.0 135.31638218691822,68.5 53.98401508488729,68.5" fill="black" stroke="black" stroke-width="0" />
<polygon points="136.67440228867127,67.0 163.91322998460853,67.0 163.91322998460853,68.5 136.67440228867127,68.5" fill="black" stroke="black" stroke-width="0" />
<polygon points="165.2712500863616,67.0 274.99771258489113,67.0 274.99771258489113,68.5 165.2712500863616,68.5" fill="black" stroke="black" stroke-width="0" />
<polygon points="276.35573268664416,67.0 305.0279505999818,67.0 305.0279505999818,68.5 276.35573268664416,68.5" fill="black" stroke="black" stroke-width="0" />
<polygon points="306.38597070173483,67.0 331.2331212954697,67.0 331.2331212954697,68.5 306.38597070173483,68.5" fill="black" stroke="black" stroke-width="0" />
<polygon points="332.59114139722277,67.0 348.2938599327882,67.0 348.2938599327882,68.5 332.59114139722277,68.5" fill="black" stroke="black" stroke-width="0" />
<polygon points="349.65188003454125,67.0 356.49385691119346,67.0 356.49385691119346,68.5 349.65188003454125,68.5" fill="black" stroke="black" stroke-width="0" />
<polygon points="357.85187701294655,67.0 368.76974752199527,67.0 368.76974752199527,68.5 357.85187701294655,68.5" fill="black" stroke="black" stroke-width="0" />
<polygon points="370.1277676237483,67.0 370.7552408117633,67.0 370.7552408117633,68.5 370.1277676237483,68.5" fill="black" stroke="black" stroke-width="0" />
<polygon points="372.1132609135164,67.0 372.4666856449976,67.0 372.4666856449976,68.5 372.1132609135164,68.5" fill="black" stroke="black" stroke-width="0" />
<polygon points="373.8247057467507,67.0 374.48334549610087,67.0 374.48334549610087,68.5 373.8247057467507,68.5" fill="black" stroke="black" stroke-width="0" />
<polygon points="375.84136559785395,67.0 376.5696717784241,67.0 376.5696717784241,68.5 375.84136559785395,68.5" fill="black" stroke="black" stroke-width="0" />
<polygon points="377.9276918801771,67.0 378.59610937426,67.0 378.59610937426,68.5 377.9276918801771,68.5" fill="black" stroke="black" stroke-width="0" />
<polygon points="379.95412947601307,67.0 395.5661322687814,67.0 395.5661322687814,68.5 379.95412947601307,68.5" fill="black" stroke="black" stroke-width="0" />
<polygon points="396.92415237053444,67.0 398.2026603953299,67.0 398.2026603953299,68.5 396.92415237053444,68.5" fill="black" stroke="black" stroke-width="0" />
<polygon points="399.5606804970829,67.0 400.0,67.0 400.0,68.5 399.5606804970829,68.5" fill="black" stroke="black" stroke-width="0" />
<polygon points="368.63414921483525,2.5 368.7092477264622,2.5 364.0336524171315,32.5 363.95746748942315,32.5" fill="lightseagreen" fill-opacity="0.8" stroke="lightseagreen" stroke-width="0" />
<polygon points="368.7093156274673,2.5 368.8528583522226,2.5 364.0336524171315,32.5 363.8874615531778,32.5" fill="lightseagreen" fill-opacity="0.8" stroke="lightseagreen" stroke-width="0" />
<polygon points="367.0462842108605,2.5 367.23212926178536,2.5 362.5293735504197,32.5 362.3384359241132,32.5" fill="lightseagreen" fill-opacity="0.8" stroke="lightseagreen" stroke-width="0" />
<polygon points="363.547549121709,2.5 363.78914089781085,2.5 359.2403846659839,32.5 358.9947867305819,32.5" fill="lightseagreen" fill-opacity="0.8" stroke="lightseagreen" stroke-width="0" />
<polygon points="361.6964998220145,2.5 361.94209775741655,2.5 357.43727347588134,32.5 357.1884841932402,32.5" fill="lightseagreen" fill-opacity="0.8" stroke="lightseagreen" stroke-width="0" />
<polygon points="363.30018576017466,2.5 363.5474812207039,2.5 359.30536592785285,32.5 359.0547433180743,32.5" fill="lightseagreen" fill-opacity="0.8" stroke="lightseagreen" stroke-width="0" />
<polygon points="365.1995805754916,2.5 365.5117893968846,2.5 360.98021211934486,32.5 360.66345393061096,32.5" fill="lightseagreen" fill-opacity="0.8" stroke="lightseagreen" stroke-width="0" />
<polygon points="361.26125437940266,2.5 361.69643192100943,2.5 357.6366987278238,32.5 357.1954779967642,32.5" fill="lightseagreen" fill-opacity="0.8" stroke="lightseagreen" stroke-width="0" />
<polygon points="359.1856564558833,2.5 359.83580857959754,2.5 355.830396190482,32.5 355.1737934712844,32.5" fill="lightseagreen" fill-opacity="0.8" stroke="lightseagreen" stroke-width="0" />
<polygon points="358.534689520108,2.5 359.18558855487817,2.5 355.830396190482,32.5 355.1737934712844,32.5" fill="lightseagreen" fill-opacity="0.8" stroke="lightseagreen" stroke-width="0" />
<polygon points="394.5635060276571,2.5 395.35489224195373,2.5 389.6379671185988,32.5 388.835580941478,32.5" fill="lightseagreen" fill-opacity="0.8" stroke="lightseagreen" stroke-width="0" />
<polygon points="291.56229857803413,2.5 292.36291932902265,2.5 272.7008252857911,32.5 271.8932786322836,32.5" fill="lightseagreen" fill-opacity="0.8" stroke="lightseagreen" stroke-width="0" />
<polygon points="391.5520964520197,2.5 393.20541802489896,2.5 386.8696431411752,32.5 385.1966981778256,32.5" fill="lightseagreen" fill-opacity="0.8" stroke="lightseagreen" stroke-width="0" />
<polygon points="352.4100188612017,2.5 357.1656015545256,2.5 347.7846023946308,32.5 342.9793161655827,32.5" fill="lightseagreen" fill-opacity="0.8" stroke="lightseagreen" stroke-width="0" />
<polygon points="345.98441094774694,2.5 352.4100188612017,2.5 353.8157054685263,32.5 347.31914100475495,32.5" fill="lightseagreen" fill-opacity="0.8" stroke="lightseagreen" stroke-width="0" />
<polygon points="290.9894856991147,2.5 299.9431838339929,2.5 281.1687596302723,32.5 272.1193889792255,32.5" fill="lightseagreen" fill-opacity="0.8" stroke="lightseagreen" stroke-width="0" />
<polygon points="326.5021866669926,2.5 344.62632294498883,2.5 323.06972295880666,32.5 304.76415519521623,32.5" fill="lightseagreen" fill-opacity="0.8" stroke="lightseagreen" stroke-width="0" />
<polygon points="0.0,2.5 18.70102321722092,2.5 341.6212281628246,32.5 322.73368088462786,32.5" fill="lightseagreen" fill-opacity="0.8" stroke="lightseagreen" stroke-width="0" />
<polygon points="370.27389058669695,2.5 390.1940084492616,2.5 385.52031436807334,32.5 365.39174041988963,32.5" fill="lightseagreen" fill-opacity="0.8" stroke="lightseagreen" stroke-width="0" />
<polygon points="301.3012718367511,2.5 324.9938337399755,2.5 305.40174563298933,32.5 281.4565919908388,32.5" fill="lightseagreen" fill-opacity="0.8" stroke="lightseagreen" stroke-width="0" />
<polygon points="190.30831979132662,2.5 289.630990290326,2.5 272.50907284742357,32.5 172.16089346858533,32.5" fill="lightseagreen" fill-opacity="0.8" stroke="lightseagreen" stroke-width="0" />
<polygon points="18.701091118226007,2.5 188.94996018454816,2.5 172.13767132484534,32.5 0.0,32.5" fill="lightseagreen" fill-opacity="0.8" stroke="lightseagreen" stroke-width="0" />
<polygon points="385.9437450358,2.5 385.6095362887586,2.5 355.82231597087656,32.5 355.485662787652,32.5" fill="peru" fill-opacity="0.8" stroke="peru" stroke-width="0" />
<polygon points="161.45568890747114,2.5 160.71387042688855,2.5 385.85486262014024,32.5 385.10584663301836,32.5" fill="peru" fill-opacity="0.8" stroke="peru" stroke-width="0" />
<polygon points="161.45636791752202,2.5 160.7118333967359,2.5 172.47996029149223,32.5 171.72741345210576,32.5" fill="peru" fill-opacity="0.8" stroke="peru" stroke-width="0" />
<polygon points="359.05671244722186,36.0 359.24024886397376,36.0 378.5960414732549,66.0 378.4145420866556,66.0" fill="lightseagreen" fill-opacity="0.8" stroke="lightseagreen" stroke-width="0" />
<polygon points="359.056848249232,36.0 359.30536592785285,36.0 374.0620876605371,66.0 373.8247057467507,66.0" fill="lightseagreen" fill-opacity="0.8" stroke="lightseagreen" stroke-width="0" />
<polygon points="360.66345393061096,36.0 360.98021211934486,36.0 378.257622863898,66.0 377.949284399795,66.0" fill="lightseagreen" fill-opacity="0.8" stroke="lightseagreen" stroke-width="0" />
<polygon points="357.1884841932402,36.0 357.50544608498933,36.0 376.56865326334776,66.0 376.26703699874844,66.0" fill="lightseagreen" fill-opacity="0.8" stroke="lightseagreen" stroke-width="0" />
<polygon points="355.30592882718497,36.0 355.6654646491241,36.0 372.46634613997213,66.0 372.1165880627657,66.0" fill="lightseagreen" fill-opacity="0.8" stroke="lightseagreen" stroke-width="0" />
<polygon points="24.047955763853203,36.0 24.41726933052495,36.0 11.255678009359814,66.0 10.901031059787005,66.0" fill="lightseagreen" fill-opacity="0.8" stroke="lightseagreen" stroke-width="0" />
<polygon points="357.1973792249067,36.0 357.6366987278238,36.0 376.26696909774336,66.0 375.84136559785395,66.0" fill="lightseagreen" fill-opacity="0.8" stroke="lightseagreen" stroke-width="0" />
<polygon points="388.83979080379345,36.0 389.28909175445847,36.0 399.9999320989949,66.0 399.5606804970829,66.0" fill="lightseagreen" fill-opacity="0.8" stroke="lightseagreen" stroke-width="0" />
<polygon points="355.1737934712844,36.0 355.6763967109432,36.0 374.4832775950958,66.0 373.99635948761227,66.0" fill="lightseagreen" fill-opacity="0.8" stroke="lightseagreen" stroke-width="0" />
<polygon points="355.1737934712844,36.0 355.8061555316657,36.0 370.75517291075823,66.0 370.13537253631813,66.0" fill="lightseagreen" fill-opacity="0.8" stroke="lightseagreen" stroke-width="0" />
<polygon points="14.5877161310211,36.0 15.258985467317634,36.0 11.400307150196515,66.0 10.738272350591902,66.0" fill="lightseagreen" fill-opacity="0.8" stroke="lightseagreen" stroke-width="0" />
<polygon points="60.01036508842663,36.0 60.70702940062595,36.0 15.745496168770664,66.0 15.062276255578706,66.0" fill="lightseagreen" fill-opacity="0.8" stroke="lightseagreen" stroke-width="0" />
<polygon points="385.10618613804377,36.0 385.85425151109445,36.0 170.10369671744473,66.0 169.36432267304528,66.0" fill="lightseagreen" fill-opacity="0.8" stroke="lightseagreen" stroke-width="0" />
<polygon points="60.15017325790211,36.0 61.03947272153509,36.0 13.635132930646423,66.0 12.758395152954654,66.0" fill="lightseagreen" fill-opacity="0.8" stroke="lightseagreen" stroke-width="0" />
<polygon points="385.56777717062965,36.0 386.86577278388523,36.0 398.2025924943248,66.0 396.92415237053444,66.0" fill="lightseagreen" fill-opacity="0.8" stroke="lightseagreen" stroke-width="0" />
<polygon points="351.92907604216583,36.0 353.8157054685263,36.0 359.7070682739514,66.0 357.85187701294655,66.0" fill="lightseagreen" fill-opacity="0.8" stroke="lightseagreen" stroke-width="0" />
<polygon points="257.2809823374208,36.0 259.47948108014884,36.0 283.6654116863401,66.0 281.50928317078683,66.0" fill="lightseagreen" fill-opacity="0.8" stroke="lightseagreen" stroke-width="0" />
<polygon points="380.9370644256619,36.0 384.8536623001228,36.0 169.2504526875133,66.0 165.4003977980383,66.0" fill="lightseagreen" fill-opacity="0.8" stroke="lightseagreen" stroke-width="0" />
<polygon points="306.950839163059,36.0 310.9983501753289,36.0 336.53693670387133,66.0 332.59114139722277,66.0" fill="lightseagreen" fill-opacity="0.8" stroke="lightseagreen" stroke-width="0" />
<polygon points="252.00181499386602,36.0 257.25497625247226,36.0 281.49882641600334,66.0 276.35573268664416,66.0" fill="lightseagreen" fill-opacity="0.8" stroke="lightseagreen" stroke-width="0" />
<polygon points="322.7369401328721,36.0 329.6872191126391,36.0 356.4937890101884,66.0 349.65188003454125,66.0" fill="lightseagreen" fill-opacity="0.8" stroke="lightseagreen" stroke-width="0" />
<polygon points="342.9793161655827,36.0 352.2410811605436,36.0 368.7696796209902,66.0 359.7070682739514,66.0" fill="lightseagreen" fill-opacity="0.8" stroke="lightseagreen" stroke-width="0" />
<polygon points="14.933264345912164,36.0 24.478516037114012,36.0 9.380184347833762,66.0 0.0,66.0" fill="lightseagreen" fill-opacity="0.8" stroke="lightseagreen" stroke-width="0" />
<polygon points="311.0280908155573,36.0 322.94784065467434,36.0 348.29379203178314,66.0 336.54752926066504,66.0" fill="lightseagreen" fill-opacity="0.8" stroke="lightseagreen" stroke-width="0" />
<polygon points="236.7543726974133,36.0 252.44432584402225,36.0 248.2497412547325,66.0 232.90017584662792,66.0" fill="lightseagreen" fill-opacity="0.8" stroke="lightseagreen" stroke-width="0" />
<polygon points="365.3956107771796,36.0 381.2714089747135,36.0 395.56606436777633,66.0 379.95412947601307,66.0" fill="lightseagreen" fill-opacity="0.8" stroke="lightseagreen" stroke-width="0" />
<polygon points="259.5040612439906,36.0 281.30904310678335,36.0 305.0278826989767,66.0 283.6781770752966,66.0" fill="lightseagreen" fill-opacity="0.8" stroke="lightseagreen" stroke-width="0" />
<polygon points="281.6731961970684,36.0 306.92965404947165,36.0 331.2330533944646,66.0 306.38597070173483,66.0" fill="lightseagreen" fill-opacity="0.8" stroke="lightseagreen" stroke-width="0" />
<polygon points="171.7284319671821,36.0 197.43011670994508,36.0 194.55043508417774,66.0 169.36432267304528,66.0" fill="lightseagreen" fill-opacity="0.8" stroke="lightseagreen" stroke-width="0" />
<polygon points="144.10127842314856,36.0 171.9885607176729,36.0 163.91316208360345,66.0 136.67440228867127,66.0" fill="lightseagreen" fill-opacity="0.8" stroke="lightseagreen" stroke-width="0" />
<polygon points="24.15781959008503,36.0 60.55309782209224,36.0 52.62592708212915,66.0 17.103923676554242,66.0" fill="lightseagreen" fill-opacity="0.8" stroke="lightseagreen" stroke-width="0" />
<polygon points="197.45815982504627,36.0 236.71281728229962,36.0 232.8867314476206,66.0 194.56306467112404,66.0" fill="lightseagreen" fill-opacity="0.8" stroke="lightseagreen" stroke-width="0" />
<polygon points="60.84113388567406,36.0 143.6214220201941,36.0 135.31624638490803,66.0 53.98401508488729,66.0" fill="lightseagreen" fill-opacity="0.8" stroke="lightseagreen" stroke-width="0" />
<polygon points="381.2190572997909,36.0 381.03973074535446,36.0 372.46634613997213,66.0 372.29007513076465,66.0" fill="peru" fill-opacity="0.8" stroke="peru" stroke-width="0" />
<polygon points="381.2191931018011,36.0 380.899175664823,36.0 370.75517291075823,66.0 370.4388900290599,66.0" fill="peru" fill-opacity="0.8" stroke="peru" stroke-width="0" />
<polygon points="355.82231597087656,36.0 355.485662787652,36.0 395.5147312079301,66.0 395.1821520850107,66.0" fill="peru" fill-opacity="0.8" stroke="peru" stroke-width="0" />
<polygon points="252.44432584402225,36.0 252.08974679545452,36.0 11.25343727619192,66.0 10.913389042712959,66.0" fill="peru" fill-opacity="0.8" stroke="peru" stroke-width="0" />
<polygon points="338.19501134710674,36.0 337.83927798145254,36.0 11.25493109830385,66.0 10.913389042712959,66.0" fill="peru" fill-opacity="0.8" stroke="peru" stroke-width="0" />
<polygon points="307.12717807327164,36.0 306.76913607344443,36.0 11.25112864201894,66.0 10.908024863311034,66.0" fill="peru" fill-opacity="0.8" stroke="peru" stroke-width="0" />
<polygon points="144.30633945851324,36.0 143.55263830204032,36.0 170.10627695563807,66.0 169.36242144490282,66.0" fill="peru" fill-opacity="0.8" stroke="peru" stroke-width="0" />
<polygon points="341.6212281628246,36.0 329.17239369206453,36.0 274.99764468388605,66.0 262.7406984535037,66.0" fill="peru" fill-opacity="0.8" stroke="peru" stroke-width="0" />
<polygon points="15.103695868682173,36.0 0.0,36.0 262.7406305524986,66.0 247.9166189237725,66.0" fill="peru" fill-opacity="0.8" stroke="peru" stroke-width="0" />
</svg>
